<svg xmlns="http://www.w3.org/2000/svg" viewBox="217.39 226.49 407.1201 142.2834">
    <linearGradient id="A" gradientUnits="userSpaceOnUse" x1="217.388" y1="297.638" x2="624.502" y2="297.638">
        <stop offset="0" stop-color="#ff4713" />
        <stop offset="0.5" stop-color="#db0032" />
        <stop offset="1" stop-color="#ae1164" />
    </linearGradient>
    <path
        d="M624.44 314.9v-1.1l-.01.02c-.6-28.39-24.94-51.04-53.92-48.85-24.54 1.85-44.35 21.77-46.07 46.32-2.06 29.23 21.14 53.67 49.94 53.67 11.62 0 22.32-3.98 30.82-10.64l-.06 12.36c-.01 1.85 2.23 2.79 3.55 1.49l10.9-10.82c3.16-3.13 4.93-7.4 4.92-11.85l-.06-30.59zm-50.45 31.63c-17.23 0-31.25-14.02-31.25-31.25s14.02-31.25 31.25-31.25 31.25 14.02 31.25 31.25-14.02 31.25-31.25 31.25zm-337.4-79.6v95.94h-19.2v-73.68c0-5.1 2.01-9.99 5.61-13.61l10.04-10.12c1.3-1.32 3.55-.39 3.55 1.47zm-19.2-10.82l.02-27.17c0-1.35 1.1-2.45 2.45-2.45h14.24c1.35 0 2.45 1.1 2.45 2.45l.02 9.31c.01 3.32-1.3 6.51-3.65 8.86l-10.91 10.93c-1.7 1.7-4.62.49-4.62-1.93zm90.68 8.85c-13.37-1.19-25.79 2.91-35.39 10.44l.06-46.81c.01-1.85-2.23-2.79-3.55-1.49l-10.9 10.82c-3.16 3.13-4.93 7.4-4.92 11.85l.06 65.04v.03 1.08l.01-.02c.57 27.11 22.8 48.99 50.05 48.99 28.79 0 51.98-24.42 49.94-53.64-1.69-24.29-21.1-44.12-45.36-46.29zm-4.19 80.73c-17.23 0-31.25-14.02-31.25-31.25s14.02-31.25 31.25-31.25 31.25 14.02 31.25 31.25-14.02 31.25-31.25 31.25zM484.3 314.9l46.89-46.89c1.27-1.27.37-3.45-1.43-3.45h-17.57c-2.68 0-5.25 1.07-7.15 2.96l-34.06 34.06-7.35-6.99c-1.19-1.12-3.07-1.1-4.22.06l-9.03 9.03c-1.21 1.21-1.18 3.18.07 4.35l7.21 6.86-20.29 20.29-.02-.01c-5.38 4.45-15.75 10.56-23.27 10.56-4.56 0-8.89-1.01-12.8-2.78l52.03-52.74a4.19 4.19 0 0 0 .05-5.84c-11.87-12.17-26.12-19.4-39.67-19.4-27.55 0-49.96 22.41-49.96 49.95 0 27.55 22.41 49.96 49.96 49.96 12.88 0 24.17-4.3 38.2-17.62l19.08-19.05 31.72 31.74c1.9 1.9 4.47 2.96 7.15 2.96h17.57c1.8 0 2.7-2.18 1.43-3.45L484.3 314.9zm-101.39-.75c.22-16.8 14.07-30.6 30.87-30.77 6.3-.06 12.17 1.77 17.09 4.94l-43.02 43.02c-3.18-4.96-5.02-10.86-4.94-17.19z"
        fill="url(#A)" transform="matrix(1, 0, 0, 1, 7.105427357601002e-15, 7.105427357601002e-15)" />
</svg>