<svg width="500" height="500" viewBox="0 0 500 500" xmlns="http://www.w3.org/2000/svg"
    xmlns:xlink="http://www.w3.org/1999/xlink">
    <g>
        <path d="m0 101v57.5 82.5h59.3v-140z"></path>
        <path d="m241.7 222.6h-19.5v-41.6h-21.8v60h41.3z"></path>
        <g transform="translate(0 .398102)">
            <path
                d="m281.4 198c7.8 0 11.4 6 11.4 12.6s-3.6 12.6-11.4 12.6-11.4-6-11.4-12.6 3.6-12.6 11.4-12.6m0 44.7c21.5 0 34.1-15.1 34.1-32.1 0-16.9-12.6-32.1-34.1-32.1s-34.1 15.1-34.1 32.1 12.6 32.1 34.1 32.1">
            </path>
            <path
                d="m358.2 242.7c19.8 0 32.3-12.5 32.3-30.4 0-2.6-.3-6.2-.3-6.2h-32.4v11.6h11.5s-2.7 6.5-11 6.5c-9.1 0-12.7-5.7-12.7-14.5 0-9 4.3-14.1 11.7-14.1 4.7 0 8.1 1.8 8.9 4.7h23.8c-.9-13.3-13.8-21.8-32.8-21.8-20.5 0-34.2 12.9-34.2 32.1 0 20.6 15.5 32.1 35.2 32.1">
            </path>
            <path d="m401.1 240.6h21.8v-60h-21.8z" mask="url(#a)"></path>
            <path
                d="m466.2 223.3c-7.3 0-11.7-4.8-11.7-12.7s4.4-12.7 11.7-12.7c6 0 10.1 2.8 11 6.9h22.8c-1.3-17.2-14.1-26.3-33.8-26.3-19.9 0-34.3 13.4-34.3 32.1s14.4 32.1 34.3 32.1c19.7 0 32.6-9.2 33.8-26.3h-22.8c-.8 4.1-5 6.9-11 6.9"
                mask="url(#b)"></path>
            <path
                d="m238.4 262.2h-21.6v35c0 4.3-2.5 7.1-6.5 7.1-3.8 0-6-2.1-6-2.1l-11.3 15.5s6.1 6.1 17.7 6.1c16 0 27.8-7.1 27.8-26.3v-35.3z"
                mask="url(#c)"></path>
            <path
                d="m281.4 304.6c-7.8 0-11.4-6-11.4-12.6s3.6-12.6 11.4-12.6 11.4 6 11.4 12.6-3.6 12.6-11.4 12.6m0-44.6c-21.5 0-34.1 15.1-34.1 32.1 0 16.9 12.6 32.1 34.1 32.1s34.1-15.1 34.1-32.1-12.6-32.1-34.1-32.1"
                mask="url(#d)"></path>
            <path d="m365.3 306.3h-18.3v-8h18.3v-11.6h-18.3v-8.9h18.3v-15.6h-40.1v59.7h40.1z" mask="url(#e)"></path>
            <path
                d="m80.9 311.3c0 13.1-6.4 24.9-23.3 24.9-15.5 0-23.2-9-23.2-9l-34.4 45.7s18.5 26.3 65.8 26.3c45.9 0 74.4-35.3 74.4-80.7l.1-56.3h-59.4z"
                mask="url(#f)"></path>
            <path d="m80.9 240.6h59.5v-60h-59.5z" fill="#ffe600" mask="url(#g)"></path>
        </g>
    </g>
</svg>